<svg xmlns="http://www.w3.org/2000/svg" viewBox="0 0 400.3 434.5"><g fill="#29ae60"><path d="M0 185.1c3.6-20.1 19.8-30.2 33.4-42.4 3.2-2.9 6.5-5.6 10.6-9.1 0 7.1.1 13.2-.1 19.3 0 1.1-1 2.4-1.9 3.2-5.3 4.8-10.8 9.4-16.2 14.1-6.4 5.7-9.9 12.5-9.9 21.4.1 66.8.3 133.6-.1 200.4-.1 12.4 8.7 26.2 26.4 26.1 77.3-.1 154.6 0 231.9 0h83.5c12.2 0 21.6-6.7 24.7-17.8.7-2.5.8-5.2.8-7.9 0-67 0-134 .1-200.9 0-9.1-3.2-16.1-10.4-21.5-2.1-1.6-3.7-4-6-5.3-12.3-6.6-12.2-17.6-10.4-29.8 3.4 2.9 6.6 5.5 9.8 8.3 6.9 6 13.9 11.9 20.8 17.9 6.3 5.6 10.1 12.6 11.9 20.8.2 1.1.7 2.2 1 3.3v214c-.3.6-.8 1.1-.9 1.7-1.8 11.2-7.4 20.3-17 26.2-5.2 3.2-11.4 4.8-17.1 7.1h-330c-.6-.3-1.1-.8-1.7-.9-11.2-1.8-20.3-7.4-26.2-17-3.1-5.3-4.7-11.5-7-17.2v-214z"/><path d="M332 202.7v-85.3c0-15.3-8-23.3-23.3-23.3h-215c-12.1 0-22 6.7-25 16.8-.5 1.9-.7 3.9-.7 5.9V208c-5.6-5-10.5-9.1-15-13.5-.9-.9-.9-3.1-.9-4.6-.1-24-.1-48 0-72 0-19.5 14.1-35.8 33.5-38.6 4.4-.6 8.9-1 13.4-1 69.7-.1 139.3 0 209 0 24.7 0 40.1 15.4 40.1 40.2 0 22.2.1 44.3-.1 66.5 0 2.3-1.4 5-3 6.7-3.8 3.5-8 6.7-13 11zM198 264.7c-15.4 13.3-30.5 26.3-45.6 39.4l-77.1 66.6c-8.4 7.3-16.9 14.6-25.3 21.9-1.4 1.2-2.7 2.4-4.2 3.6-4.5 3.4-8.9 3.2-11.9-.6-3-3.8-2.2-8 2.2-11.7 38.6-33.3 77.1-66.6 115.7-99.9 13.2-11.4 26.5-22.8 39.8-34.1 5-4.3 7.9-4.2 13.1.2 23 20 45.9 40.1 68.9 60.1 28 24.4 55.9 48.9 83.9 73.3 5 4.3 5.9 8.3 2.5 12.3-3.3 3.9-7.8 3.9-12.7-.3-19.8-17.3-39.6-34.7-59.4-52-25.7-22.5-51.4-44.9-77.1-67.4-4.1-3.7-8.2-7.4-12.8-11.4zM199.7 18.9c-18.6 16.2-37 32.3-55.6 48.3-1.8 1.5-4.6 2.6-7 2.7-6.1.4-12.3.1-19.3.1 1.5-1.6 2.3-2.7 3.3-3.6L194 2.5c3.9-3.4 7.9-3.5 11.7-.2 24.7 21.6 49.3 43.2 74 64.8.7.6 1.8.8 2.7 1.2-.4.5-.7 1.1-1.1 1.6-7.1 0-14.2.1-21.3-.1-1.3 0-2.7-1.2-3.7-2.1-18.5-16-36.9-32.1-55.4-48.2-.1-.1-.5-.2-1.2-.6zM264 294.2c-4-3.5-7.8-6.9-11.8-10.5 14-12.3 27.7-24.3 41.4-36.3 17.8-15.6 35.6-31.1 53.3-46.6 1.4-1.2 2.7-2.4 4.2-3.5 4.3-3.1 8.6-2.8 11.4 1 2.5 3.3 1.9 8-1.6 11.1-8.1 7.2-16.2 14.3-24.4 21.4-23.5 20.6-47 41.2-70.6 61.8-.5.4-1.1.9-1.9 1.6zM143.3 284.1c-4.1 3.6-7.8 6.7-11.7 10.1-9.3-8-18.5-15.9-27.7-23.8-23-19.9-46.1-39.8-69.1-59.6-5-4.3-6.1-8.4-2.8-12.3 3.2-4 7.7-4.1 12.6.1 20.7 17.8 41.3 35.7 61.9 53.5l33.6 29.1c1 .8 1.9 1.7 3.2 2.9z"/><path d="M198.9 162H121c-1.5 0-3.3.4-4.4-.2-1.4-.8-3.1-2.5-3.1-3.8 0-1.3 1.7-3 3.1-3.8 1.2-.6 2.9-.2 4.4-.2h157.3c1 0 2.2-.4 3 .1 1.7 1 3.1 2.4 4.6 3.6-1.5 1.4-3 3.9-4.6 4.1-5.3.5-10.6.2-16 .2h-66.4zM199.9 186.1h78.4c1.3 0 2.9-.4 3.9.2 1.4.8 3.4 2.2 3.5 3.5.1 1.3-1.6 2.9-2.9 4-.6.5-1.9.3-2.9.3H119.1c-.3 0-.8.1-1 0-1.6-1.3-3.3-2.6-4.9-3.9 1.6-1.3 3-3.6 4.7-3.9 3.7-.6 7.6-.2 11.5-.2h70.5zM199.8 218.1h78.4c1.3 0 2.9-.4 3.9.2 1.4.8 3.4 2.2 3.5 3.5.1 1.3-1.6 3-2.9 4-.7.6-2.2.4-3.4.4H119.5c-1.2 0-2.6.3-3.4-.3-1.2-.9-2.9-2.5-2.7-3.6.2-1.4 1.7-3.1 3-3.8 1.1-.7 2.9-.2 4.4-.2 26.4-.2 52.7-.2 79-.2z"/></g></svg>