<?xml version="1.0" encoding="utf-8"?>
<!-- Generator: Adobe Illustrator 19.1.0, SVG Export Plug-In . SVG Version: 6.00 Build 0)  -->
<svg version="1.1" id="Layer_1" xmlns="http://www.w3.org/2000/svg" xmlns:xlink="http://www.w3.org/1999/xlink" x="0px" y="0px"
	 viewBox="0 0 25 25" style="enable-background:new 0 0 25 25;" xml:space="preserve">
<path id="KvGpOr.tif" d="M13.8,0.6c1.4,0,2.8,0,4.1,0c0,1.4,0,2.7,0,4.1c-0.9,0-1.8,0-2.6,0c-0.7,0-1.1,0.4-1.1,1.1
	c0,0.8,0,1.6,0,2.3c0,0.1,0,0.1,0,0.2c1.3,0,2.5,0,3.7,0c-0.1,1.4-0.3,2.8-0.4,4.2c-1.1,0-2.2,0-3.3,0c0,4,0,7.9,0,11.8
	c-1.7,0-3.3,0-4.9,0c0-4,0-7.9,0-11.9c-0.8,0-1.6,0-2.3,0c0-1.4,0-2.8,0-4.2c0.8,0,1.5,0,2.3,0c0-0.6,0-1.1,0-1.6
	c0-0.8,0-1.6,0.1-2.4c0.3-1.7,1.3-3,3.1-3.5C13,0.8,13.4,0.7,13.8,0.6z"/>
</svg>
