<?xml version="1.0" encoding="UTF-8"?>
<!DOCTYPE svg PUBLIC "-//W3C//DTD SVG 1.1//EN" "http://www.w3.org/Graphics/SVG/1.1/DTD/svg11.dtd">
<svg version="1.1" xmlns="http://www.w3.org/2000/svg" xmlns:xlink="http://www.w3.org/1999/xlink" x="0" y="0" width="48.2" height="48.3" viewBox="0, 0, 48.2, 48.3">
  <g id="Layer_1">
    <path d="M24.1,-0 C10.8,-0 -0,10.8 -0,24.1 C-0,37.4 10.8,48.2 24.1,48.2 C37.4,48.2 48.2,37.4 48.2,24.1 C48.2,10.8 37.5,-0 24.1,-0 z M34.9,27.8 C34.9,30.3 32.9,32.4 30.3,32.4 L18,32.4 C15.5,32.4 13.4,30.3 13.4,27.8 L13.4,22.7 C13.4,20.2 15.4,18.1 18,18.1 L19.4,18.1 L19.4,15.8 L29,15.8 L29,18.1 L30.4,18.1 C32.9,18.1 35,20.2 35,22.7 L35,27.8 L34.9,27.8 z M24.4,20.4 C21.9,20.4 19.8,22.5 19.8,25 C19.8,27.5 21.8,29.6 24.4,29.6 C26.9,29.6 29,27.5 29,25 C28.9,22.5 26.9,20.4 24.4,20.4 z M24.4,28 C22.8,28 21.4,26.7 21.4,25 C21.4,23.3 22.7,22 24.4,22 C26,22 27.4,23.3 27.4,25 C27.4,26.7 26,28 24.4,28 z" fill="#285A85"/>
  </g>
</svg>
