<?xml version="1.0" encoding="UTF-8"?>
<!DOCTYPE svg PUBLIC "-//W3C//DTD SVG 1.1//EN" "http://www.w3.org/Graphics/SVG/1.1/DTD/svg11.dtd">
<svg version="1.1" xmlns="http://www.w3.org/2000/svg" xmlns:xlink="http://www.w3.org/1999/xlink" x="0" y="0" width="218.3" height="48.3" viewBox="0, 0, 218.3, 48.3">
    <path d="M73.5,22.5 L73.5,22.5 C74.4,22 75.2,21.3 75.7,20.3 C76.2,19.4 76.5,18.3 76.5,17.1 C76.5,15.3 76,13.9 74.9,12.7 C73.8,11.5 72.3,10.9 70.4,10.9 L62.2,10.9 L62.2,34.9 L71,34.9 C73,34.9 74.5,34.3 75.6,33.1 C76.7,31.9 77.2,30.3 77.2,28.4 C77.2,26.9 76.9,25.7 76.3,24.6 C75.7,23.6 74.7,22.9 73.5,22.5 z M63.8,12.3 L70.2,12.3 C71.7,12.3 72.9,12.7 73.7,13.6 C74.5,14.5 75,15.6 75,17 C75,18.5 74.6,19.7 73.7,20.5 C72.9,21.3 71.7,21.8 70.2,21.8 L63.8,21.8 L63.8,12.3 z M74.3,32.1 C73.5,33 72.3,33.5 70.8,33.5 L63.7,33.5 L63.7,23.3 L70.8,23.3 C72.3,23.3 73.5,23.7 74.3,24.6 C75.1,25.5 75.5,26.7 75.5,28.4 C75.6,29.9 75.2,31.2 74.3,32.1 z M94.1,25.2 C94.9,24.3 95.3,23.2 95.3,21.9 C95.3,20.6 94.8,19.4 93.7,18.4 C92.6,17.4 91.1,16.9 89.2,16.9 C86.6,16.9 84.7,17.7 83.5,19.4 C82.2,21 81.6,23.3 81.6,26.1 C81.6,32.2 84,35.3 88.9,35.3 C90.4,35.3 92.3,35.1 94.4,34.8 L94.4,33.9 L88.9,33.9 C85.1,33.9 83.2,31.5 83.1,26.6 L90.3,26.6 C92,26.5 93.3,26.1 94.1,25.2 z M84.6,20.2 C85.6,18.9 87.1,18.3 89,18.3 C90.5,18.3 91.7,18.7 92.5,19.4 C93.3,20.1 93.8,20.9 93.8,21.9 C93.8,24.1 92.6,25.2 90.1,25.2 L83,25.2 C83.1,23.1 83.7,21.5 84.6,20.2 z M24.1,-0 C10.8,-0 -0,10.8 -0,24.1 C-0,37.4 10.8,48.2 24.1,48.2 C37.4,48.2 48.2,37.4 48.2,24.1 C48.2,10.8 37.5,-0 24.1,-0 z M34.9,27.8 C34.9,30.3 32.9,32.4 30.3,32.4 L18,32.4 C15.5,32.4 13.4,30.3 13.4,27.8 L13.4,22.7 C13.4,20.2 15.4,18.1 18,18.1 L19.4,18.1 L19.4,15.8 L29,15.8 L29,18.1 L30.4,18.1 C32.9,18.1 35,20.2 35,22.7 L35,27.8 z M24.4,20.4 C21.9,20.4 19.8,22.5 19.8,25 C19.8,27.5 21.8,29.6 24.4,29.6 C26.9,29.6 29,27.5 29,25 C28.9,22.5 26.9,20.4 24.4,20.4 z M24.4,28 C22.8,28 21.4,26.7 21.4,25 C21.4,23.3 22.7,22 24.4,22 C26,22 27.4,23.3 27.4,25 C27.4,26.7 26,28 24.4,28 z M164.1,16.9 C161.5,16.9 159.5,17.8 158.2,19.5 L158.1,19.5 L158.1,10.2 L156.7,10.2 L156.7,34.9 L158.1,34.9 L158.1,23.3 C158.1,21.8 158.7,20.6 159.9,19.7 C161.1,18.8 162.4,18.3 163.8,18.3 C165.1,18.3 166.2,18.7 167.1,19.4 C168,20.1 168.4,21.1 168.4,22.3 L168.4,35 L169.8,35 L169.8,22.2 C169.8,20.6 169.3,19.3 168.3,18.4 C167.2,17.4 165.9,16.9 164.1,16.9 z M195.8,12.3 L194.7,12.3 L194.3,17.2 L191.1,17.6 L191.1,18.5 L194.3,18.5 L194.3,31.7 C194.3,32.8 194.5,33.6 195,34.3 C195.5,34.9 196.4,35.3 197.8,35.3 C198.5,35.3 199.6,35.1 201,34.8 L201,33.9 L197.8,33.9 C197,33.9 196.5,33.8 196.2,33.5 C195.9,33.2 195.7,32.7 195.7,31.8 L195.7,18.5 L201,18.5 L201,17.3 L195.7,17.3 L195.7,12.3 z M101.2,20.3 L101.2,20.3 L101.1,17.3 L99.7,17.3 L99.7,34.9 L101.1,34.9 L101.1,24 C101.1,22.5 101.6,21.2 102.7,20.2 C103.8,19.1 105.1,18.6 106.7,18.6 L107.1,18.6 L107.1,17 C105.8,17 104.7,17.3 103.6,17.8 C102.6,18.3 101.7,19.2 101.2,20.3 z M181.6,16.9 C176.8,16.9 174.3,20 174.3,26.1 C174.3,32.2 176.7,35.3 181.6,35.3 C186.4,35.3 188.9,32.2 188.9,26.1 C188.9,20 186.5,16.9 181.6,16.9 z M181.6,33.9 C177.8,33.9 175.8,31.3 175.8,26 C175.8,20.8 177.7,18.1 181.6,18.1 C185.4,18.1 187.4,20.7 187.4,26 C187.4,31.3 185.5,33.9 181.6,33.9 z M211,16.9 C206.2,16.9 203.7,20 203.7,26.1 C203.7,32.2 206.1,35.3 211,35.3 C215.8,35.3 218.3,32.2 218.3,26.1 C218.3,20 215.9,16.9 211,16.9 z M211,33.9 C207.2,33.9 205.2,31.3 205.2,26 C205.2,20.8 207.1,18.1 211,18.1 C214.8,18.1 216.8,20.7 216.8,26 C216.8,31.3 214.9,33.9 211,33.9 z M112.2,20.3 L112.2,20.3 L112.1,17.3 L110.7,17.3 L110.7,34.9 L112.1,34.9 L112.1,24 C112.1,22.5 112.6,21.2 113.7,20.2 C114.8,19.1 116.1,18.6 117.7,18.6 L118.1,18.6 L118.1,17 C116.8,17 115.7,17.3 114.6,17.8 C113.5,18.3 112.7,19.2 112.2,20.3 z M145.5,10.9 L137.2,10.9 L137.2,34.9 L138.8,34.9 L138.8,24 L145.5,24 C147.6,24 149.2,23.4 150.3,22.3 C151.4,21.1 152,19.5 152,17.5 C152,15.6 151.4,14 150.3,12.8 C149.2,11.5 147.6,10.9 145.5,10.9 z M149.2,21.3 C148.3,22.2 147,22.6 145.4,22.6 L138.9,22.6 L138.9,12.3 L145.4,12.3 C147,12.3 148.3,12.8 149.2,13.7 C150.1,14.6 150.6,15.9 150.6,17.4 C150.5,19.1 150,20.4 149.2,21.3 z M126.7,33.1 L126.7,33.1 L120.8,17.2 L119.2,17.2 L125.9,35.2 L122.5,41.6 L123.5,42.3 C125.3,39.8 126.8,36.9 127.9,33.8 L134.1,17.2 L132.5,17.2 L126.7,33.1 z" fill="#285a85"/>
</svg>
